<svg width="86" height="33" viewBox="0 0 86 33" fill="none" xmlns="http://www.w3.org/2000/svg">
<path d="M30.0261 0H3.65137V23.9931H30.0261V0Z" fill="#FFF200"/>
<path d="M7.31112 15.2687L6.36596 18.0924H5.15088L8.24314 9.11548H9.66111L12.767 18.0924H11.5111L10.5388 15.2687H7.31112ZM10.2951 14.363L9.40388 11.7793C9.20144 11.1933 9.06648 10.6607 8.93107 10.1412H8.9039C8.76894 10.6738 8.62039 11.22 8.44467 11.7662L7.5534 14.3634H10.2951V14.363Z" fill="#3E3F41"/>
<path d="M14.7793 9.23493C15.3734 9.11491 16.224 9.04834 17.0342 9.04834C18.29 9.04834 19.1002 9.27478 19.6672 9.7811C20.1264 10.1805 20.3827 10.7933 20.3827 11.4862C20.3827 12.6714 19.6264 13.4576 18.6677 13.7769V13.8167C19.3696 14.0563 19.7886 14.6957 20.0046 15.6282C20.3017 16.8804 20.5177 17.7459 20.7065 18.0923H19.4915C19.3429 17.8392 19.1405 17.0666 18.8837 15.948C18.6138 14.7093 18.1274 14.2429 17.0609 14.203H15.9536V18.0923H14.7788V9.23493H14.7793ZM15.954 13.324H17.156C18.4118 13.324 19.2084 12.6447 19.2084 11.6189C19.2084 10.46 18.3579 9.9541 17.1157 9.94051C16.5487 9.94051 16.1433 9.99395 15.9545 10.0474V13.324H15.954Z" fill="#3E3F41"/>
<path d="M24.5698 10.1005H21.8018V9.11499H28.5397V10.1005H25.7581V18.092H24.5698V10.1005Z" fill="#3E3F41"/>
<path d="M40.6941 17.6925C40.1674 17.8791 39.1276 18.1852 37.8989 18.1852C36.5217 18.1852 35.3872 17.8388 34.496 16.9996C33.7129 16.2537 33.2266 15.0549 33.2266 13.6565C33.2401 10.9795 35.1033 9.02124 38.1552 9.02124C39.2086 9.02124 40.032 9.24768 40.4237 9.43381L40.1402 10.3799C39.6543 10.1666 39.0465 9.99357 38.1281 9.99357C35.9135 9.99357 34.4688 11.3522 34.4688 13.603C34.4688 15.8805 35.8596 17.2261 37.9795 17.2261C38.749 17.2261 39.2757 17.1196 39.546 16.9865V14.3095H37.696V13.377H40.6936V17.6925H40.6941Z" fill="white"/>
<path d="M44.6383 15.2687L43.6931 18.0924H42.478L45.5703 9.11548H46.9883L50.0941 18.0924H48.8383L47.8659 15.2687H44.6383ZM47.6223 14.363L46.731 11.7793C46.5286 11.1933 46.3936 10.6607 46.2582 10.1412H46.231C46.0961 10.6738 45.9475 11.22 45.7718 11.7662L44.8806 14.3634H47.6223V14.363Z" fill="white"/>
<path d="M52.1069 9.11499H53.2817V17.1201H57.1706V18.0924H52.1069V9.11499Z" fill="white"/>
<path d="M63.8689 13.8834H60.331V17.1201H64.2738V18.0924H59.1562V9.11499H64.0714V10.0873H60.331V12.9242H63.8689V13.8834Z" fill="white"/>
<path d="M66.476 9.23493C67.0702 9.11491 67.9207 9.04834 68.7309 9.04834C69.9868 9.04834 70.797 9.27478 71.364 9.7811C71.8232 10.1805 72.0795 10.7933 72.0795 11.4862C72.0795 12.6714 71.3232 13.4576 70.3645 13.7769V13.8167C71.0664 14.0563 71.4853 14.6957 71.7014 15.6282C71.9984 16.8804 72.2145 17.7459 72.4033 18.0923H71.1882C71.0397 17.8392 70.8373 17.0666 70.5805 15.948C70.3106 14.7093 69.8242 14.2429 68.7576 14.203H67.6504V18.0923H66.4756V9.23493H66.476ZM67.6508 13.324H68.8527C70.1086 13.324 70.9052 12.6447 70.9052 11.6189C70.9052 10.46 70.0547 9.9541 68.812 9.94051C68.245 9.94051 67.8397 9.99395 67.6508 10.0474V13.324Z" fill="white"/>
<path d="M76.2937 18.0924V14.2828L73.4175 9.11499H74.7544L76.0374 11.5922C76.3884 12.2716 76.6587 12.8177 76.9422 13.4436H76.9694C77.2257 12.8576 77.5364 12.2716 77.8874 11.5922L79.1971 9.11499H80.534L77.4825 14.2697V18.0924H76.2937Z" fill="white"/>
<path d="M31.0215 27.5426C31.2847 27.7025 31.6701 27.8356 32.075 27.8356C32.6759 27.8356 33.0274 27.5227 33.0274 27.0698C33.0274 26.6504 32.7846 26.4104 32.1701 26.1776C31.4269 25.9181 30.9677 25.5386 30.9677 24.906C30.9677 24.2067 31.555 23.6873 32.4395 23.6873C32.9055 23.6873 33.2434 23.7937 33.4458 23.9069L33.2837 24.3797C33.1347 24.3 32.8308 24.1669 32.4191 24.1669C31.7978 24.1669 31.5614 24.5332 31.5614 24.8394C31.5614 25.2587 31.8381 25.4653 32.4662 25.7048C33.2361 25.9978 33.6279 26.3642 33.6279 27.0232C33.6279 27.7156 33.108 28.3148 32.0337 28.3148C31.5949 28.3148 31.1153 28.1884 30.8726 28.0286L31.0215 27.5426Z" fill="white"/>
<path d="M35.5044 26.8367L35.0316 28.2483H34.4238L35.9704 23.7607H36.6796L38.233 28.2483H37.6049L37.1185 26.8367H35.5044ZM36.9966 26.3843L36.551 25.0927C36.45 24.7996 36.3821 24.5334 36.3146 24.2739H36.301C36.2335 24.5401 36.1593 24.8132 36.0714 25.0859L35.6258 26.3843H36.9966Z" fill="white"/>
<path d="M39.2373 28.2483V23.7607H39.879L41.3382 26.031C41.6756 26.5568 41.9387 27.0296 42.1552 27.4893L42.1688 27.483C42.1149 26.8838 42.1013 26.3376 42.1013 25.6384V23.7607H42.6552V28.2483H42.061L40.6154 25.9712C40.2979 25.4717 39.9945 24.9591 39.7644 24.4731L39.7445 24.4799C39.778 25.0456 39.7916 25.5854 39.7916 26.3308V28.2483H39.2373Z" fill="white"/>
<path d="M45.7852 23.7607H48.2366V24.2467H46.373V25.738H48.0953V26.2176H46.373V28.2483H45.7856V23.7607H45.7852Z" fill="white"/>
<path d="M49.4106 23.8203C49.7077 23.7606 50.133 23.7271 50.5383 23.7271C51.1665 23.7271 51.5718 23.8403 51.8553 24.093C52.0849 24.2927 52.2131 24.5993 52.2131 24.9453C52.2131 25.5381 51.8349 25.9308 51.3558 26.0906V26.1106C51.7067 26.2306 51.916 26.5503 52.0242 27.0163C52.1728 27.6422 52.2805 28.0751 52.3756 28.2481H51.7674C51.6932 28.1218 51.5922 27.7355 51.4635 27.1762C51.3286 26.5571 51.0854 26.3239 50.5519 26.3039H49.998V28.2481H49.4106V23.8203ZM49.998 25.8646H50.599C51.2271 25.8646 51.6252 25.525 51.6252 25.0123C51.6252 24.4331 51.2 24.1799 50.5786 24.1736C50.2951 24.1736 50.0922 24.2003 49.998 24.2266V25.8646Z" fill="white"/>
<path d="M54.1499 26.8367L53.6771 28.2483H53.0693L54.6159 23.7607H55.3251L56.8785 28.2483H56.2504L55.764 26.8367H54.1499ZM55.6421 26.3843L55.1965 25.0927C55.0955 24.7996 55.0276 24.5334 54.9601 24.2739H54.9465C54.879 24.5401 54.8048 24.8132 54.7169 25.0859L54.2713 26.3843H55.6421Z" fill="white"/>
<path d="M57.8828 28.2483V23.7607H58.5245L59.9837 26.031C60.3211 26.5568 60.5842 27.0296 60.8007 27.4893L60.8143 27.483C60.7604 26.8838 60.7468 26.3376 60.7468 25.6384V23.7607H61.3007V28.2483H60.7065L59.2609 25.9712C58.9435 25.4717 58.64 24.9591 58.41 24.4731L58.39 24.4799C58.4235 25.0456 58.4371 25.5854 58.4371 26.3308V28.2483H57.8828Z" fill="white"/>
<path d="M65.8435 28.1019C65.6275 28.2083 65.1954 28.3148 64.6411 28.3148C63.3581 28.3148 62.3926 27.5159 62.3926 26.044C62.3926 24.6392 63.3581 23.6873 64.7697 23.6873C65.3367 23.6873 65.695 23.8073 65.8503 23.887L65.7086 24.3598C65.4857 24.2534 65.1678 24.1736 64.7901 24.1736C63.7227 24.1736 63.0139 24.8462 63.0139 26.0246C63.0139 27.1232 63.6557 27.8288 64.7634 27.8288C65.1212 27.8288 65.4857 27.7555 65.7221 27.6422L65.8435 28.1019Z" fill="white"/>
<path d="M67.5034 23.7607V28.2483H66.916V23.7607H67.5034Z" fill="white"/>
<path d="M68.7852 27.5426C69.0484 27.7025 69.4333 27.8356 69.8386 27.8356C70.4396 27.8356 70.791 27.5227 70.791 27.0698C70.791 26.6504 70.5483 26.4104 69.9337 26.1776C69.1906 25.9181 68.7313 25.5386 68.7313 24.906C68.7313 24.2067 69.3187 23.6873 70.2032 23.6873C70.6692 23.6873 71.0071 23.7937 71.2095 23.9069L71.0474 24.3797C70.8984 24.3 70.5945 24.1669 70.1828 24.1669C69.5615 24.1669 69.3251 24.5332 69.3251 24.8394C69.3251 25.2587 69.6018 25.4653 70.2299 25.7048C70.9998 25.9978 71.3916 26.3642 71.3916 27.0232C71.3916 27.7156 70.8716 28.3148 69.7974 28.3148C69.3586 28.3148 68.879 28.1884 68.6362 28.0286L68.7852 27.5426Z" fill="white"/>
<path d="M75.7131 28.1019C75.4971 28.2083 75.0651 28.3148 74.5107 28.3148C73.2277 28.3148 72.2622 27.5159 72.2622 26.044C72.2622 24.6392 73.2277 23.6873 74.6389 23.6873C75.2059 23.6873 75.5641 23.8073 75.7195 23.887L75.5777 24.3598C75.3549 24.2534 75.037 24.1736 74.6593 24.1736C73.5919 24.1736 72.8831 24.8462 72.8831 26.0246C72.8831 27.1232 73.5248 27.8288 74.6326 27.8288C74.9903 27.8288 75.3549 27.7555 75.5913 27.6422L75.7131 28.1019Z" fill="white"/>
<path d="M80.5332 25.958C80.5332 27.5023 79.5808 28.3216 78.4196 28.3216C77.2173 28.3216 76.3735 27.4027 76.3735 26.0445C76.3735 24.6198 77.2716 23.6877 78.4871 23.6877C79.7298 23.6873 80.5332 24.6261 80.5332 25.958ZM77.0017 26.0309C77.0017 26.9897 77.5284 27.8488 78.4532 27.8488C79.3856 27.8488 79.9123 27.0033 79.9123 25.9847C79.9123 25.0926 79.4395 24.1605 78.4604 24.1605C77.4876 24.1601 77.0017 25.0455 77.0017 26.0309Z" fill="white"/>
<path d="M37.6679 32.3354H33.1382V32.9079H37.6679V32.3354Z" fill="white"/>
<path d="M81.1895 15.4359H85V2.28247H1V26.3684H29.0577" stroke="white" stroke-width="0.7702" stroke-miterlimit="10"/>
</svg>
